<?xml version="1.0" standalone="no"?>
<!DOCTYPE svg PUBLIC "-//W3C//DTD SVG 20010904//EN"
 "http://www.w3.org/TR/2001/REC-SVG-20010904/DTD/svg10.dtd">
<svg version="1.0" xmlns="http://www.w3.org/2000/svg"
 width="1024.000000pt" height="1024.000000pt" viewBox="0 0 1024.000000 1024.000000"
 preserveAspectRatio="xMidYMid meet">
<metadata>
Created by potrace 1.14, written by Peter Selinger 2001-2017
</metadata>
<g transform="translate(0.000000,1024.000000) scale(0.100000,-0.100000)"
fill="#000000" stroke="none">
<path d="M5030 8575 c-168 -18 -316 -50 -518 -111 -85 -26 -232 -88 -232 -99
0 -3 26 -49 59 -103 72 -120 109 -193 153 -303 74 -181 168 -534 168 -625 0
-66 -15 -83 -105 -119 -241 -97 -450 -232 -639 -415 -241 -233 -416 -504 -512
-795 -70 -214 -84 -309 -84 -571 0 -123 -3 -224 -7 -224 -8 0 -83 47 -222 139
l-113 75 5 186 c7 291 62 510 196 785 119 243 250 425 445 621 182 182 463
386 623 451 24 10 43 25 43 33 0 22 -125 307 -154 351 -30 44 -80 64 -134 54
-90 -17 -394 -196 -567 -333 -240 -191 -471 -431 -633 -659 -309 -433 -499
-912 -569 -1433 -26 -193 -26 -727 0 -920 42 -315 129 -611 271 -930 69 -155
202 -393 247 -444 34 -38 41 -41 86 -41 39 0 59 7 92 30 24 16 47 40 52 53 5
13 9 388 9 853 0 657 3 829 13 829 6 -1 82 -51 167 -113 l155 -113 3 -817 2
-816 278 -282 c283 -288 470 -463 717 -674 77 -66 169 -145 204 -177 35 -32
67 -55 72 -52 5 3 9 -67 9 -158 0 -90 4 -168 8 -175 11 -17 236 -133 258 -133
43 0 44 7 44 391 0 201 3 394 6 428 l7 61 31 -32 c18 -18 94 -108 170 -201 76
-92 148 -174 159 -182 56 -39 85 -16 254 202 57 72 120 152 142 176 l39 46 6
-31 c3 -17 6 -214 6 -438 0 -448 -1 -439 60 -427 33 7 67 23 180 84 l75 41 3
171 c2 161 4 171 23 182 67 36 702 625 1042 966 l217 219 0 816 0 816 163 115
c89 63 165 113 169 111 4 -3 8 -380 8 -839 0 -586 4 -842 11 -859 19 -42 69
-71 121 -71 42 0 52 5 93 45 82 80 270 439 361 687 57 156 127 429 159 618 40
236 48 358 42 624 -4 215 -9 268 -35 421 -84 476 -247 885 -517 1290 -164 247
-316 421 -525 604 -214 188 -357 286 -592 406 -205 105 -249 86 -344 -151 -25
-62 -55 -130 -65 -151 -10 -20 -19 -41 -19 -46 0 -4 21 -18 48 -31 256 -124
565 -372 779 -626 218 -257 377 -571 449 -885 30 -132 49 -351 40 -450 l-8
-75 -56 -36 c-32 -20 -103 -68 -158 -107 l-101 -71 -6 222 c-7 307 -38 455
-155 728 -93 218 -252 441 -445 625 -186 178 -343 285 -593 404 -77 37 -144
75 -147 85 -18 46 19 279 72 455 55 183 160 418 248 553 25 38 42 74 40 82
-12 30 -211 102 -446 159 -250 62 -616 82 -901 51z m395 -1005 c-3 -5 -39 -10
-80 -10 -41 0 -77 5 -80 10 -4 6 25 10 80 10 55 0 84 -4 80 -10z m-245 -10 c0
-5 -7 -10 -16 -10 -8 0 -12 5 -9 10 3 6 10 10 16 10 5 0 9 -4 9 -10z m350 0
c0 -5 -4 -10 -9 -10 -6 0 -13 5 -16 10 -3 6 1 10 9 10 9 0 16 -4 16 -10z m114
-31 c15 -12 25 -23 22 -26 -2 -3 -11 0 -18 6 -7 7 -22 18 -33 26 -11 8 -15 15
-9 15 6 0 23 -10 38 -21z m-616 -19 c-17 -17 -33 -29 -35 -26 -7 6 43 56 56
56 5 0 -4 -14 -21 -30z m649 -732 c-1 -134 -2 -27 -2 237 0 264 1 373 2 243 2
-130 2 -346 0 -480z m-680 210 c-1 -90 -3 -19 -3 157 0 176 2 249 3 163 2 -86
2 -230 0 -320z m365 355 c17 -15 18 -37 18 -272 l0 -256 117 -120 118 -120
-126 123 c-117 115 -129 124 -160 120 l-34 -3 -3 254 c-2 226 0 256 14 273 21
22 32 23 56 1z m-92 -557 c0 -2 -24 -23 -52 -47 l-53 -43 45 47 c39 41 60 56
60 43z"/>
</g>
</svg>
